
    <svg width="25" height="33" viewBox="0 0 25 33" fill="none" xmlns="http://www.w3.org/2000/svg">
        <path d="M14.0625 18H10.9375C8.03669 18 5.2547 19.3828 3.20352 21.8442C1.15234 24.3056 0 27.644 0 31.125C0 31.6223 0.16462 32.0992 0.457646 32.4508C0.750671 32.8025 1.1481 33 1.5625 33H23.4375C23.8519 33 24.2493 32.8025 24.5424 32.4508C24.8354 32.0992 25 31.6223 25 31.125C25 27.644 23.8477 24.3056 21.7965 21.8442C19.7453 19.3828 16.9633 18 14.0625 18Z" fill="" fill-opacity="0.79"/>
        <path d="M22 8C22 9.58225 21.4428 11.129 20.399 12.4446C19.3551 13.7602 17.8714 14.7855 16.1355 15.391C14.3996 15.9965 12.4895 16.155 10.6466 15.8463C8.80383 15.5376 7.11109 14.7757 5.78249 13.6569C4.45389 12.538 3.5491 11.1126 3.18254 9.56072C2.81598 8.00887 3.00412 6.40034 3.72315 4.93853C4.44218 3.47672 5.65982 2.22729 7.22209 1.34824C8.78435 0.469192 10.6211 0 12.5 0C15.0196 0 17.4359 0.842854 19.2175 2.34315C20.9991 3.84344 22 5.87827 22 8Z" fill="#333333" fill-opacity="0.79"/>
    </svg>

